<svg id="Layer_1" data-name="Layer 1" xmlns="http://www.w3.org/2000/svg" viewBox="0 0 272.39 52.39"><defs><style>.cls-1{fill:#de5950;}.cls-2{fill:#0b748f;}</style></defs><title>logo</title><path class="cls-1" d="M27.78,61.46V77.74h2.14V61.46a15.29,15.29,0,1,0-2.14,0Zm1.07-26.14A10.92,10.92,0,0,1,39.76,46.22H37.62a8.78,8.78,0,0,0-8.77-8.77Z" transform="translate(-11.31 -30.94)"/><path class="cls-2" d="M32.26,71.26l-.13,2.13c7.81.49,12.13,2.58,12.13,3.85,0,1.57-6.14,3.94-15.4,3.94s-15.4-2.37-15.4-3.94c0-1.25,4.29-3.34,12-3.84l-.14-2.13c-6.48.42-14,2.23-14,6,0,4,8.82,6.08,17.54,6.08s17.54-2.09,17.54-6.08C46.39,73.48,38.78,71.67,32.26,71.26Z" transform="translate(-11.31 -30.94)"/><path class="cls-2" d="M93.68,40.63v2.76H66.1V69.73H78.54v2.81H66.1v5.84H93.74v2.76H63.34V40.63Z" transform="translate(-11.31 -30.94)"/><path class="cls-2" d="M108.88,40.63h8.06a19.47,19.47,0,0,1,5.63.81,19.12,19.12,0,0,1,5,2.22,20.24,20.24,0,0,1,6.92,7.25,20.11,20.11,0,0,1,0,20,20.23,20.23,0,0,1-6.92,7.25,19.07,19.07,0,0,1-5,2.22,19.48,19.48,0,0,1-5.63.81H106.78V40.63ZM111,78.39h5.9a16.76,16.76,0,0,0,8.6-2.27,17.6,17.6,0,0,0,6.27-6,16.42,16.42,0,0,0,1.89-4.38,16.74,16.74,0,0,0,.7-4.87,17.12,17.12,0,0,0-.7-4.87,16.62,16.62,0,0,0-1.89-4.33,17.6,17.6,0,0,0-6.27-6,16.76,16.76,0,0,0-8.6-2.27h-7.41v35Z" transform="translate(-11.31 -30.94)"/><path class="cls-2" d="M150.75,40.63V81.15H148V40.63Z" transform="translate(-11.31 -30.94)"/><path class="cls-2" d="M189.21,73.36V40.63H192V81.15q-9.2-10.87-27.64-32.62V81.15h-2.76V40.63Q170.76,51.56,189.21,73.36Z" transform="translate(-11.31 -30.94)"/><path class="cls-1" d="M242.48,41.38V81.89h-2.76V41.38Z" transform="translate(-11.31 -30.94)"/><path class="cls-1" d="M280.94,74.1V41.38h2.76V81.89Q274.5,71,256.05,49.28V81.89h-2.76V41.38Q262.49,52.3,280.94,74.1Z" transform="translate(-11.31 -30.94)"/><path class="cls-1" d="M218.64,40.63a14.21,14.21,0,0,1,7.19,1.89,15,15,0,0,1,5.19,5,14.15,14.15,0,0,1,1.57,3.62,14.13,14.13,0,0,1,0,8.11A14.12,14.12,0,0,1,231,62.86a14.93,14.93,0,0,1-5.19,5,14.2,14.2,0,0,1-7.19,1.89H205.55V81.15h-2.76V40.63h15.85Zm0,26.34A11.36,11.36,0,0,0,227,63.51a11.24,11.24,0,0,0,3.46-8.33,11.82,11.82,0,0,0-11.79-11.79H205.55V67h13.09Z" transform="translate(-11.31 -30.94)"/></svg>