<svg id="Layer_1" data-name="Layer 1" xmlns="http://www.w3.org/2000/svg" viewBox="0 0 267.82 51.51"><defs><style>.cls-1{fill:#fff;}</style></defs><title>logowhite</title><path class="cls-1" d="M30.16,62.15v16h2.1v-16a15,15,0,1,0-2.1,0Zm1.05-25.7A10.74,10.74,0,0,1,41.94,47.17h-2.1a8.63,8.63,0,0,0-8.62-8.62Z" transform="translate(-13.97 -32.14)"/><path class="cls-1" d="M34.57,71.79l-.13,2.1c7.68.48,11.92,2.54,11.92,3.78,0,1.54-6,3.88-15.14,3.88s-15.14-2.33-15.14-3.88c0-1.23,4.22-3.28,11.83-3.78l-.14-2.1C21.4,72.21,14,74,14,77.67c0,3.93,8.68,6,17.25,6s17.25-2.06,17.25-6C48.46,74,41,72.19,34.57,71.79Z" transform="translate(-13.97 -32.14)"/><path class="cls-1" d="M95,41.68v2.71H67.84v25.9H80.07v2.77H67.84V78.8H95v2.71H65.13V41.68Z" transform="translate(-13.97 -32.14)"/><path class="cls-1" d="M109.91,41.68h7.92a19.15,19.15,0,0,1,5.53.8,18.79,18.79,0,0,1,4.95,2.18,19.9,19.9,0,0,1,6.81,7.13,19.78,19.78,0,0,1,0,19.63,19.89,19.89,0,0,1-6.81,7.13,18.75,18.75,0,0,1-4.95,2.18,19.15,19.15,0,0,1-5.53.8h-10V41.68ZM112,78.8h5.8a16.48,16.48,0,0,0,8.46-2.23,17.3,17.3,0,0,0,6.17-5.9,16.14,16.14,0,0,0,1.86-4.31,16.46,16.46,0,0,0,.69-4.79,16.84,16.84,0,0,0-.69-4.79,16.34,16.34,0,0,0-1.86-4.25,17.3,17.3,0,0,0-6.17-5.9,16.48,16.48,0,0,0-8.46-2.23h-7.29V78.8Z" transform="translate(-13.97 -32.14)"/><path class="cls-1" d="M151.08,41.68V81.51h-2.71V41.68Z" transform="translate(-13.97 -32.14)"/><path class="cls-1" d="M188.89,73.85V41.68h2.71V81.51q-9-10.69-27.18-32.07V81.51h-2.71V41.68Q170.75,52.42,188.89,73.85Z" transform="translate(-13.97 -32.14)"/><path class="cls-1" d="M241.26,42.41V82.24h-2.71V42.41Z" transform="translate(-13.97 -32.14)"/><path class="cls-1" d="M279.08,74.58V42.41h2.71V82.24q-9-10.69-27.18-32.07V82.24H251.9V42.41Q260.94,53.15,279.08,74.58Z" transform="translate(-13.97 -32.14)"/><path class="cls-1" d="M217.82,41.68a14,14,0,0,1,7.07,1.86A14.7,14.7,0,0,1,230,48.43,13.91,13.91,0,0,1,231.55,52a13.89,13.89,0,0,1,0,8A13.89,13.89,0,0,1,230,63.53a14.68,14.68,0,0,1-5.11,4.89,14,14,0,0,1-7.07,1.86H205V81.51h-2.71V41.68h15.58Zm0,25.9a11.17,11.17,0,0,0,8.19-3.4,11.05,11.05,0,0,0,3.4-8.19,11.62,11.62,0,0,0-11.59-11.59H205V67.58h12.87Z" transform="translate(-13.97 -32.14)"/></svg>